<?xml version="1.0" encoding="utf-8"?>
<!-- Generator: Adobe Illustrator 24.0.2, SVG Export Plug-In . SVG Version: 6.00 Build 0)  -->
<svg version="1.1" id="Layer_1" xmlns="http://www.w3.org/2000/svg" xmlns:xlink="http://www.w3.org/1999/xlink" x="0px" y="0px"
	 viewBox="0 0 512 512" style="enable-background:new 0 0 512 512;" xml:space="preserve">
<style type="text/css">
	.st0{fill:#E1549C;}
</style>
<g>
	<path class="st0" d="M472.6522,84.5578c7.495-7.9204,1.8797-20.9648-9.0248-20.9648h-88.9271l-17.7757,29.6295
		c8.7806,7.0032,10.148,21.5631,2.7755,33.8262c-7.3613,12.2446-20.8311,17.8661-31.1283,13.4344l-9.9533,16.5905
		c6.955,7.5023,7.565,20.7063,0.7905,31.9749c-6.7633,11.2498-18.6817,16.9044-28.5601,14.3131l-11.0788,18.4672l-6.2154-3.7264
		l10.7692-17.9602c-8.9153-6.9563-10.3405-21.6123-2.926-33.9454c7.4003-12.3092,20.9753-17.9289,31.293-13.3661l9.9104-16.5281
		c-7.0702-7.4788-7.726-20.7713-0.9123-32.1056c6.7996-11.3102,18.8098-16.9648,28.7188-14.2708L366.197,63.593H47.9587
		c-10.9049,0-16.5202,13.0443-9.0252,20.9648l205.7571,217.4462v146.9361c-49.1954,2.0932-92.5112,15.9145-120.9776,36.4749
		c-7.799,5.6331-3.8997,17.9282,5.7213,17.9282h256.5999c9.6209,0,13.5203-12.2951,5.7209-17.9282
		c-29.004-20.9489-73.4196-34.9111-123.7679-36.5901V300.8497L472.6522,84.5578z"/>
	<g>
		<polygon class="st0" points="406.8353,12.1637 375.7159,64.0251 366.0089,63.8957 400.0196,8.0769 		"/>
	</g>
</g>
</svg>
