<?xml version="1.0" encoding="utf-8"?>
<!-- Generator: Adobe Illustrator 17.0.0, SVG Export Plug-In . SVG Version: 6.00 Build 0)  -->
<!DOCTYPE svg PUBLIC "-//W3C//DTD SVG 1.1//EN" "http://www.w3.org/Graphics/SVG/1.1/DTD/svg11.dtd">
<svg version="1.1" id="icon" xmlns="http://www.w3.org/2000/svg" xmlns:xlink="http://www.w3.org/1999/xlink" x="0px" y="0px"
	 width="128px" height="128px" viewBox="0 0 128 128" enable-background="new 0 0 128 128" xml:space="preserve">
<ellipse fill="#B8CBCD" cx="65.833" cy="113.771" rx="47.667" ry="11.813"/>
<path fill="#B2EDA6" d="M28.728,106.002c3.688,1.44,16.194,7.17,36.17,7.17c19.977,0,31.347-5.822,34.83-7.707
	C118.67,95.217,119.5,70,119.5,70c0-6.075-24.849-11-55.5-11C33.348,59,8.5,63.925,8.5,70C8.5,70,9.205,98.379,28.728,106.002z"/>
<path fill="#FFFFFF" d="M36.89,113.003c-0.363,0-0.731-0.066-1.09-0.206c-20.927-8.172-24.947-36.205-25.108-37.395
	c-0.222-1.642,0.929-3.153,2.571-3.375c1.642-0.223,3.151,0.927,3.375,2.567l0,0c0.035,0.257,3.727,25.733,21.345,32.612
	c1.544,0.604,2.306,2.343,1.703,3.886C39.223,112.278,38.09,113.003,36.89,113.003z"/>
<path fill="#3C663E" d="M64.897,115.172c-18.372,0-30.575-5.111-35.786-7.294c-0.533-0.223-0.979-0.41-1.337-0.55
	C7.238,99.31,6.521,71.226,6.5,70.034C6.5,59.717,44.112,57,64,57s57.5,2.717,57.5,13c0.029,1.024,0.5,26.514-19.297,37.224
	C99.751,108.551,86.427,115.172,64.897,115.172z M64,61c-14.698,0-28.497,1.131-38.856,3.184C13.19,66.553,10.5,69.244,10.5,70
	c0.004,0.229,0.703,26.563,18.729,33.602c0.382,0.149,0.859,0.349,1.428,0.587c4.989,2.09,16.672,6.983,34.241,6.983
	c20.566,0,33.099-6.219,35.402-7.466c17.658-9.553,17.208-33.411,17.202-33.651c-0.001-0.811-2.691-3.502-14.646-5.871
	C92.497,62.131,78.698,61,64,61z"/>
<path fill="#B2EDA6" d="M115.5,75c0,0-3.703,26.379-23.226,34.002"/>
<path opacity="0.2" fill="#3C663E" d="M92.274,111.003c-0.8,0-1.555-0.483-1.863-1.273c-0.402-1.029,0.106-2.188,1.135-2.591
	c18.182-7.099,21.938-32.166,21.973-32.418c0.155-1.093,1.169-1.856,2.26-1.7c1.093,0.154,1.855,1.164,1.701,2.258
	c-0.158,1.124-4.1,27.629-24.479,35.587C92.762,110.958,92.517,111.003,92.274,111.003z"/>
<path fill="#B2EDA6" d="M25.793,115.828c-1.562,1.563-4.095,1.563-5.657,0l0,0c-1.563-1.563-1.563-4.094,0-5.656l3.535-3.535
	c1.563-1.563,4.095-1.563,5.657,0l0,0c1.562,1.561,1.562,4.094,0,5.656L25.793,115.828z"/>
<path fill="#3C663E" d="M22.965,119c-1.603,0-3.11-0.624-4.243-1.758c-2.339-2.339-2.339-6.146,0-8.484l3.535-3.535
	c1.133-1.134,2.64-1.758,4.243-1.758c1.602,0,3.109,0.624,4.243,1.758c1.133,1.133,1.757,2.64,1.757,4.242
	c0,1.602-0.624,3.108-1.757,4.242l-3.536,3.535C26.074,118.376,24.567,119,22.965,119z M26.5,107.465
	c-0.534,0-1.037,0.208-1.415,0.586l-3.535,3.535c-0.779,0.779-0.779,2.048,0,2.828c0.755,0.756,2.073,0.756,2.828,0l3.536-3.535
	c0.377-0.378,0.585-0.88,0.585-1.414c0-0.534-0.208-1.036-0.585-1.414C27.537,107.673,27.034,107.465,26.5,107.465z"/>
<path fill="#B2EDA6" d="M104.207,115.828c1.563,1.563,4.095,1.563,5.657,0l0,0c1.562-1.563,1.562-4.094,0-5.656l-3.536-3.535
	c-1.562-1.563-4.095-1.563-5.656,0l0,0c-1.563,1.561-1.563,4.094,0,5.656L104.207,115.828z"/>
<path fill="#3C663E" d="M107.036,119c-1.603,0-3.109-0.624-4.243-1.758l-3.535-3.535c-1.134-1.133-1.758-2.64-1.758-4.242
	c0-1.604,0.624-3.109,1.758-4.243c1.132-1.133,2.639-1.757,4.242-1.757s3.11,0.624,4.243,1.758l3.536,3.535
	c2.338,2.339,2.338,6.146,0.001,8.484C110.145,118.376,108.638,119,107.036,119z M103.5,107.465c-0.534,0-1.036,0.208-1.414,0.586
	c-0.378,0.378-0.586,0.88-0.586,1.414c0,0.534,0.208,1.036,0.586,1.414l3.535,3.535c0.756,0.756,2.073,0.756,2.829,0
	c0.779-0.779,0.779-2.049,0-2.828l-3.536-3.535C104.536,107.673,104.034,107.465,103.5,107.465z"/>
<path fill="#3C663E" d="M9.501,70c-1.657,0-3-1.343-3-3V39c0-7.72,6.28-14,14-14c7.72,0,14,6.28,14,14c0,1.657-1.343,3-3,3
	c-1.657,0-3-1.343-3-3c0-4.411-3.589-8-8-8c-4.411,0-8,3.589-8,8v28C12.501,68.657,11.158,70,9.501,70z"/>
<circle fill="#3C663E" cx="56" cy="69.5" r="2.5"/>
<circle fill="#3C663E" cx="77.001" cy="6.5" r="3.5"/>
<circle fill="#3C663E" cx="74" cy="69.5" r="2.5"/>
<path fill="#FFFFFF" d="M117.501,62c-1.108,0-2.143,0.306-3.034,0.83c-0.34-3.827-3.55-6.83-7.466-6.83
	c-1.703,0-3.268,0.574-4.527,1.53c0.016-0.175,0.027-0.352,0.027-0.53c0-3.313-2.686-6-6-6c-2.825,0-5.187,1.955-5.825,4.583
	C89.034,53.41,86.436,52,83.501,52c-2.368,0-4.515,0.922-6.122,2.416c0.073-0.462,0.122-0.933,0.122-1.416c0-4.971-4.03-9-9-9
	c-4.649,0-8.474,3.525-8.949,8.049C58.174,51.384,56.634,51,55.001,51c-4.339,0-8.063,2.633-9.663,6.389
	C44.113,56.518,42.619,56,41.001,56c-1.092,0-2.125,0.238-3.061,0.658C36.82,53.926,34.137,52,31.001,52
	c-3.381,0-6.238,2.239-7.174,5.314C23.084,57.116,22.307,57,21.501,57c-4.935,0-8.938,3.974-8.995,8.896
	C9.931,67.165,8.5,68.549,8.5,70c0,6.075,24.848,11,55.5,11c23.877,0,44.753-1.308,52.585-5.5c0.462,0.114,0.418-1.5,0.916-1.5
	c3.314,0,6-2.687,6-6S120.815,62,117.501,62z"/>
<path fill="#3C663E" d="M64,83C44.112,83,6.5,80.283,6.5,70c0-1.999,1.374-3.796,4.089-5.35c0.715-5.774,5.985-10.218,12.01-9.593
	C24.217,51.974,27.406,50,31.001,50c3.231,0,6.17,1.614,7.907,4.234c1.858-0.426,3.856-0.263,5.616,0.444
	C46.804,51.172,50.719,49,55.001,49c1.055,0,2.092,0.132,3.103,0.395C59.6,45.045,63.711,42,68.501,42
	c5.327,0,9.782,3.806,10.788,8.842C80.612,50.29,82.04,50,83.501,50c2.427,0,4.72,0.78,6.599,2.2c1.472-1.971,3.813-3.2,6.401-3.2
	c3.523,0,6.521,2.289,7.586,5.457c0.932-0.302,1.912-0.457,2.914-0.457c4.078,0,7.554,2.521,8.9,6.163
	c0.525-0.108,1.061-0.163,1.6-0.163c4.411,0,8,3.589,8,8c0,3.982-2.925,7.294-6.739,7.9c-0.35,0.853-0.878,1.368-1.576,1.541
	C109.773,81.182,92.363,83,64,83z M21.501,59c-3.813,0-6.951,3.104-6.995,6.919c-0.009,0.754-0.44,1.438-1.116,1.771
	C11.019,68.858,10.5,69.754,10.5,70c0,0.756,2.69,3.447,14.644,5.816C35.503,77.869,49.302,79,64,79
	c27.129,0,44.344-1.693,51.192-5.034c0.439-1.305,1.215-1.966,2.309-1.966c2.206,0,4-1.794,4-4s-1.794-4-4-4
	c-0.706,0-1.404,0.191-2.019,0.554c-0.591,0.348-1.319,0.369-1.929,0.055c-0.61-0.313-1.017-0.918-1.078-1.602
	c-0.253-2.854-2.607-5.007-5.474-5.007c-1.203,0-2.35,0.389-3.317,1.123c-0.63,0.479-1.485,0.542-2.177,0.157
	c-0.693-0.383-1.095-1.14-1.024-1.928c0.011-0.116,0.019-0.233,0.019-0.353c0-2.206-1.794-4-4-4c-1.849,0-3.445,1.256-3.881,3.055
	c-0.182,0.751-0.78,1.329-1.537,1.486c-0.758,0.159-1.537-0.136-2.002-0.752C87.741,55.017,85.707,54,83.501,54
	c-1.765,0-3.456,0.668-4.76,1.881c-0.624,0.582-1.549,0.701-2.302,0.301c-0.753-0.401-1.169-1.236-1.035-2.079
	c0.065-0.413,0.097-0.773,0.097-1.103c0-3.859-3.14-7-7-7c-3.593,0-6.585,2.69-6.959,6.258c-0.068,0.647-0.447,1.222-1.016,1.538
	c-0.569,0.316-1.257,0.335-1.843,0.055C57.515,53.286,56.275,53,55.001,53c-3.414,0-6.484,2.03-7.823,5.173
	c-0.237,0.557-0.714,0.976-1.297,1.141c-0.583,0.166-1.208,0.056-1.702-0.295c-1.572-1.117-3.654-1.328-5.42-0.536
	c-0.494,0.223-1.058,0.232-1.561,0.033c-0.503-0.201-0.903-0.598-1.109-1.099C35.239,55.341,33.241,54,31.001,54
	c-2.437,0-4.552,1.566-5.261,3.896c-0.314,1.031-1.383,1.629-2.429,1.351C22.698,59.083,22.088,59,21.501,59z"/>
<circle fill="#B2EDA6" cx="85.501" cy="34" r="6"/>
<path fill="#3C663E" d="M85.501,43c-4.962,0-9-4.038-9-9s4.038-9,9-9c4.962,0,9,4.038,9,9S90.464,43,85.501,43z M85.501,31
	c-1.654,0-3,1.346-3,3s1.346,3,3,3c1.654,0,3-1.346,3-3S87.156,31,85.501,31z"/>
<circle fill="#B2EDA6" cx="62.501" cy="24" r="5"/>
<path fill="#3C663E" d="M62.501,32c-4.411,0-8-3.589-8-8s3.589-8,8-8c4.411,0,8,3.589,8,8S66.913,32,62.501,32z M62.501,22
	c-1.103,0-2,0.897-2,2s0.897,2,2,2c1.103,0,2-0.897,2-2S63.604,22,62.501,22z"/>
<path fill="#3C663E" d="M64,83C44.112,83,6.5,80.283,6.5,70c0-1.104,0.895-2,2-2c1.104,0,2,0.896,2,2
	c0,0.756,2.69,3.447,14.644,5.816C35.503,77.869,49.302,79,64,79c14.698,0,28.497-1.131,38.855-3.184
	C114.81,73.447,117.5,70.756,117.5,70c0-1.104,0.895-2,2-2c1.104,0,2,0.896,2,2C121.5,80.283,83.888,83,64,83z"/>
<path fill="#FFFFFF" d="M91.501,76.5c0,3.59,2.91,6.5,6.5,6.5c1.921,0,3.643-0.839,4.833-2.164c1.016,3.557,4.284,6.164,8.167,6.164
	c4.694,0,8.5-3.806,8.5-8.5s-3.306-7.5-8-7.5"/>
<path fill="#3C663E" d="M111.001,89c-3.701,0-7.079-1.974-8.954-5.031C100.815,84.638,99.426,85,98.001,85
	c-4.687,0-8.5-3.813-8.5-8.5c0-1.104,0.896-2,2-2c1.105,0,2,0.896,2,2c0,2.481,2.019,4.5,4.5,4.5c1.269,0,2.488-0.547,3.345-1.501
	c0.486-0.541,1.228-0.776,1.938-0.612c0.71,0.164,1.273,0.7,1.474,1.4c0.792,2.774,3.36,4.713,6.244,4.713
	c3.584,0,6.5-2.916,6.5-6.5c0-3.444-2.243-5.5-6-5.5c-1.104,0-2-0.896-2-2s0.896-2,2-2c5.981,0,10,3.817,10,9.5
	C121.501,84.29,116.791,89,111.001,89z"/>
<path fill="#FFFFFF" d="M48.501,72c0-3.59,2.91-6.5,6.5-6.5c3.59,0,6.5,2.91,6.5,6.5"/>
<path fill="#3C663E" d="M61.501,74c-1.104,0-2-0.896-2-2c0-2.481-2.019-4.5-4.5-4.5c-2.481,0-4.5,2.019-4.5,4.5c0,1.104-0.895,2-2,2
	c-1.104,0-2-0.896-2-2c0-4.687,3.813-8.5,8.5-8.5s8.5,3.813,8.5,8.5C63.501,73.104,62.606,74,61.501,74z"/>
<path fill="#FFFFFF" d="M33,68c0-2.485,2.015-4.5,4.5-4.5c2.485,0,4.5,2.015,4.5,4.5"/>
<path fill="#3C663E" d="M42,70c-1.105,0-2-0.896-2-2c0-1.379-1.122-2.5-2.5-2.5c-1.378,0-2.5,1.121-2.5,2.5c0,1.104-0.896,2-2,2
	c-1.105,0-2-0.896-2-2c0-3.584,2.916-6.5,6.5-6.5S44,64.416,44,68C44,69.104,43.104,70,42,70z"/>
<path fill="#3C663E" d="M107.036,120.103c-1.87,0-3.627-0.729-4.95-2.051l-3.535-3.535c-0.401-0.4-1.141-1.178-2.204-2.445
	c-4.747,1.538-15.31,4.203-31.449,4.203c-14.901,0-25.397-2.524-31.345-4.51c-0.704,1.136-1.407,2.057-2.103,2.752l-3.536,3.535
	c-1.322,1.322-3.08,2.051-4.949,2.051c-1.87,0-3.628-0.729-4.95-2.051c-1.322-1.322-2.05-3.08-2.05-4.949
	c0-1.869,0.728-3.627,2.051-4.949l2.555-2.556C5.845,94.47,5.507,71.178,5.5,70.123c0-0.446,0.054-0.878,0.161-1.303
	c0.049-0.194,0.119-0.395,0.2-0.59c0.064-0.188,0.137-0.374,0.229-0.561c0.103-0.206,0.236-0.423,0.378-0.636
	c0.071-0.114,0.14-0.221,0.22-0.329c0.181-0.243,0.383-0.474,0.597-0.7c0.015-0.021,0.085-0.097,0.163-0.174
	c0.189-0.191,0.426-0.402,0.68-0.611c0.044-0.038,0.095-0.082,0.131-0.109c0.245-0.197,0.536-0.409,0.846-0.618
	c0.183-0.121,0.37-0.241,0.563-0.358c0.977-5.847,6.244-10.322,12.373-10.019c1.87-3.076,5.215-5.013,8.96-5.013
	c3.34,0,6.397,1.561,8.35,4.13c1.592-0.253,3.259-0.131,4.788,0.35c2.508-3.401,6.51-5.479,10.862-5.479
	c0.839,0,1.667,0.077,2.48,0.23c1.848-4.294,6.106-7.23,11.02-7.23c5.409,0,9.994,3.598,11.487,8.526
	c1.128-0.347,2.31-0.526,3.513-0.526c2.32,0,4.528,0.653,6.418,1.857c1.656-1.778,4.01-2.857,6.582-2.857
	c3.628,0,6.761,2.157,8.184,5.257c0.753-0.17,1.528-0.257,2.316-0.257c4.218,0,7.854,2.44,9.523,6.054
	c0.324-0.036,0.65-0.054,0.977-0.054c4.962,0,9,4.037,9,9c0,2.814-1.289,5.379-3.395,7.048c0.254,0.978,0.395,2.105,0.395,3.183
	c0,2.629-1.016,5.704-2.522,7.751c-1.739,5.763-5.19,13.264-11.996,19.068l3.001,3c2.728,2.73,2.728,7.17,0.001,9.9
	C110.663,119.374,108.905,120.103,107.036,120.103z M97.343,105.543c0.899,0,1.774,0.404,2.355,1.141
	c1.619,2.05,2.633,3.13,3.094,3.591l3.535,3.535c0.255,0.255,0.553,0.293,0.707,0.293c0.155,0,0.452-0.038,0.708-0.293
	c0.389-0.39,0.389-1.024-0.001-1.414l-3.535-3.534c-0.214-0.215-0.435-0.436-1.741-1.324c-0.824-0.561-1.315-1.493-1.313-2.489
	c0.003-0.996,0.501-1.926,1.327-2.481c7.696-5.169,11.265-13.032,12.903-18.719c0.121-0.419,0.332-0.808,0.619-1.137
	c0.813-0.936,1.499-2.939,1.499-4.378c0-0.649-0.107-1.411-0.267-1.896c-0.021-0.064-0.04-0.13-0.057-0.195
	c-0.423-0.549-0.95-1.445-0.842-2.685c0.106-1.205,0.924-2.229,2.077-2.598c1.249-0.398,2.088-1.547,2.088-2.857
	c0-1.654-1.346-3-3-3c-0.535,0-1.043,0.14-1.512,0.415c-0.886,0.524-1.979,0.554-2.894,0.083c-0.915-0.471-1.525-1.378-1.616-2.402
	c-0.204-2.297-2.171-4.096-4.478-4.096c-0.982,0-1.92,0.318-2.712,0.919c-0.945,0.72-2.227,0.812-3.267,0.236
	c-1.04-0.575-1.642-1.709-1.536-2.893c0.008-0.086,0.015-0.174,0.015-0.263c0-1.654-1.346-3-3-3c-1.386,0-2.582,0.941-2.909,2.29
	c-0.273,1.127-1.171,1.995-2.306,2.23c-1.136,0.234-2.304-0.204-3.003-1.128c-1.149-1.52-2.893-2.393-4.782-2.393
	c-1.512,0-2.96,0.573-4.079,1.613c-0.936,0.871-2.323,1.054-3.454,0.45c-1.129-0.602-1.753-1.854-1.552-3.117
	c0.057-0.361,0.085-0.671,0.085-0.946c0-3.309-2.691-6-6-6c-3.08,0-5.644,2.306-5.965,5.362c-0.102,0.971-0.67,1.832-1.523,2.308
	c-0.853,0.474-1.885,0.506-2.764,0.081c-1.033-0.498-2.125-0.751-3.248-0.751c-3.012,0-5.722,1.792-6.903,4.564
	c-0.356,0.836-1.071,1.465-1.945,1.712c-0.873,0.246-1.813,0.083-2.553-0.442c-1.287-0.915-2.984-1.089-4.431-0.438
	c-0.741,0.333-1.586,0.35-2.341,0.049c-0.755-0.302-1.355-0.896-1.664-1.648c-0.696-1.699-2.331-2.797-4.163-2.797
	c-1.963,0-3.733,1.311-4.304,3.188c-0.471,1.545-2.082,2.442-3.644,2.024c-0.53-0.142-1.052-0.213-1.552-0.213
	c-3.268,0-5.958,2.66-5.995,5.931c-0.013,1.131-0.661,2.158-1.676,2.657c-0.526,0.26-0.986,0.52-1.367,0.773
	c-0.158,0.107-0.299,0.207-0.427,0.308c-0.015,0.013-0.029,0.024-0.039,0.033c-0.121,0.099-0.21,0.175-0.287,0.248l-0.059,0.066
	c-0.041,0.044-0.08,0.083-0.114,0.122l-0.035,0.055c0.068,2.304,1.102,24.452,15.331,32.228c0.87,0.476,1.449,1.351,1.547,2.337
	c0.098,0.986-0.298,1.958-1.058,2.595c-0.782,0.655-1.06,0.935-1.446,1.321l-3.621,3.62c-0.255,0.255-0.293,0.553-0.293,0.707
	c0,0.154,0.038,0.452,0.293,0.707c0.255,0.255,0.553,0.293,0.707,0.293c0.154,0,0.452-0.038,0.707-0.293l3.536-3.535
	c0.303-0.304,1.133-1.256,2.28-3.539c0.693-1.379,2.319-2.005,3.759-1.452c4.837,1.864,15.382,4.991,31.65,4.991
	c14.44,0,25.673-2.341,31.37-4.531C96.619,105.607,96.983,105.543,97.343,105.543z"/>
</svg>
